<?xml version="1.0" encoding="utf-8"?>
<!-- Generator: Adobe Illustrator 21.0.0, SVG Export Plug-In . SVG Version: 6.00 Build 0)  -->
<svg version="1.1" id="layer_3" xmlns="http://www.w3.org/2000/svg" xmlns:xlink="http://www.w3.org/1999/xlink" x="0px" y="0px"
	 viewBox="0 0 200 200" style="enable-background:new 0 0 200 200;" xml:space="preserve">
<style type="text/css">
	.st0{fill:none;}
	.st1{fill:none;stroke:#000000;stroke-width:3;stroke-miterlimit:10;}
	.st2{stroke:#000000;stroke-width:0.25;stroke-miterlimit:10;}
	.st3{font-family:'ColonnaMT';}
	.st4{font-size:87px;}
</style>
<line class="st0" x1="0" y1="2" x2="200" y2="200"/>
<line class="st0" x1="0" y1="200" x2="200" y2="0"/>
<line class="st1" x1="0" y1="0" x2="200" y2="200"/>
<line class="st1" x1="0.5" y1="200.5" x2="199.5" y2="-0.5"/>
<rect x="137.5" y="69" class="st0" width="62.4" height="65.9"/>
<text transform="matrix(1 0 0 1 137.5 120.8516)" class="st2 st3 st4">L</text>
<rect x="72.5" y="5" class="st0" width="62.4" height="65.9"/>
<text transform="matrix(1 0 0 1 72.5 56.8516)" class="st2 st3 st4">A</text>
<rect x="7.5" y="69" class="st0" width="62.4" height="65.9"/>
<text transform="matrix(1 0 0 1 7.5 120.8516)" class="st2 st3 st4">X</text>
<rect x="79.5" y="135" class="st0" width="62.4" height="65.9"/>
<text transform="matrix(1 0 0 1 79.5 186.8516)" class="st2 st3 st4">E</text>
<rect x="-0.5" y="-0.5" class="st1" width="201" height="201"/>
</svg>
